<svg width="20" height="20" viewBox="0 0 20 20" fill="none" xmlns="http://www.w3.org/2000/svg">
<path d="M19.7408 10.3153L10.7418 0.316465C10.3628 -0.105488 9.63491 -0.105488 9.25595 0.316465L0.256955 10.3153C0.127426 10.4589 0.0424037 10.637 0.0122267 10.828C-0.0179503 11.0191 0.00801785 11.2147 0.086974 11.3912C0.246956 11.7522 0.604916 11.9842 0.999872 11.9842H2.99965V18.9834C2.99965 19.2486 3.10499 19.5029 3.29251 19.6904C3.48002 19.8779 3.73435 19.9833 3.99954 19.9833H6.9992C7.26439 19.9833 7.51871 19.8779 7.70623 19.6904C7.89374 19.5029 7.99909 19.2486 7.99909 18.9834V14.9838H11.9986V18.9834C11.9986 19.2486 12.104 19.5029 12.2915 19.6904C12.479 19.8779 12.7333 19.9833 12.9985 19.9833H15.9982C16.2634 19.9833 16.5177 19.8779 16.7052 19.6904C16.8927 19.5029 16.9981 19.2486 16.9981 18.9834V11.9842H18.9979C19.1915 11.985 19.3812 11.9295 19.5438 11.8243C19.7065 11.7192 19.835 11.569 19.9137 11.3921C19.9925 11.2152 20.0181 11.0192 19.9874 10.828C19.9567 10.6368 19.871 10.4587 19.7408 10.3153Z" fill="black"/>
</svg>
