<svg width="20" height="23" viewBox="0 0 20 23" fill="none" xmlns="http://www.w3.org/2000/svg">
<path d="M17.7778 2.22222H13.1333C12.6667 0.933333 11.4444 0 10 0C8.55556 0 7.33333 0.933333 6.86667 2.22222H2.22222C2.06667 2.22222 1.92222 2.23333 1.77778 2.26667C1.4239 2.34091 1.09338 2.50005 0.814656 2.73039C0.535935 2.96072 0.317369 3.25534 0.177778 3.58889C0.0666668 3.84444 0 4.13333 0 4.44444V20C0 20.3 0.0666668 20.6 0.177778 20.8667C0.288889 21.1333 0.455555 21.3667 0.655555 21.5778C0.955555 21.8778 1.34444 22.1 1.77778 22.1889C1.92222 22.2111 2.06667 22.2222 2.22222 22.2222H17.7778C19 22.2222 20 21.2222 20 20V4.44444C20 3.22222 19 2.22222 17.7778 2.22222ZM8.88889 14.6333L7.32222 16.2111L3.33333 12.2222L7.32222 8.23333L8.88889 9.81111L6.47778 12.2222L8.88889 14.6333ZM10 3.61111C9.54445 3.61111 9.16667 3.23333 9.16667 2.77778C9.16667 2.32222 9.54445 1.94444 10 1.94444C10.4556 1.94444 10.8333 2.32222 10.8333 2.77778C10.8333 3.23333 10.4556 3.61111 10 3.61111ZM12.6778 16.2111L11.1111 14.6333L13.5222 12.2222L11.1111 9.81111L12.6778 8.23333L16.6667 12.2222L12.6778 16.2111Z" fill="black"/>
</svg>
