<svg width="19" height="18" viewBox="0 0 19 18" fill="none" xmlns="http://www.w3.org/2000/svg">
<path fill-rule="evenodd" clip-rule="evenodd" d="M11 1C11 1.26522 11.1054 1.51957 11.2929 1.70711C11.4804 1.89464 11.7348 2 12 2H17V16H12C11.7348 16 11.4804 16.1054 11.2929 16.2929C11.1054 16.4804 11 16.7348 11 17C11 17.2652 11.1054 17.5196 11.2929 17.7071C11.4804 17.8946 11.7348 18 12 18H17C17.5304 18 18.0391 17.7893 18.4142 17.4142C18.7893 17.0391 19 16.5304 19 16V2C19 1.46957 18.7893 0.960859 18.4142 0.585787C18.0391 0.210714 17.5304 0 17 0H12C11.7348 0 11.4804 0.105356 11.2929 0.292892C11.1054 0.480429 11 0.734783 11 1Z" fill="#5A5A5A"/>
<path d="M0.285999 8.29998C0.103083 8.4859 0.000395775 8.73616 0 8.99698V9.00298C0.000522614 9.2672 0.105906 9.52041 0.292999 9.70698L4.293 13.707C4.38525 13.8025 4.49559 13.8787 4.6176 13.9311C4.7396 13.9835 4.87082 14.0111 5.0036 14.0122C5.13638 14.0134 5.26806 13.9881 5.39095 13.9378C5.51385 13.8875 5.6255 13.8133 5.71939 13.7194C5.81329 13.6255 5.88754 13.5138 5.93782 13.3909C5.9881 13.268 6.0134 13.1364 6.01225 13.0036C6.0111 12.8708 5.98351 12.7396 5.9311 12.6176C5.87869 12.4956 5.80251 12.3852 5.707 12.293L3.414 9.99998H13C13.2652 9.99998 13.5196 9.89462 13.7071 9.70709C13.8946 9.51955 14 9.2652 14 8.99998C14 8.73476 13.8946 8.48041 13.7071 8.29287C13.5196 8.10534 13.2652 7.99998 13 7.99998H3.414L5.707 5.70698C5.88916 5.51838 5.98995 5.26578 5.98767 5.00358C5.9854 4.74138 5.88023 4.49057 5.69482 4.30516C5.50941 4.11975 5.2586 4.01458 4.9964 4.01231C4.7342 4.01003 4.4816 4.11082 4.293 4.29298L0.292999 8.29298L0.285999 8.29998Z" fill="#5A5A5A"/>
</svg>
