<svg width="26" height="24" viewBox="0 0 26 24" fill="none" xmlns="http://www.w3.org/2000/svg">
<path d="M13.3333 5.64706H2.66667C1.95942 5.64706 1.28115 5.94454 0.781048 6.47405C0.280951 7.00357 0 7.72174 0 8.47059V14.1176C0 14.8665 0.280951 15.5847 0.781048 16.1142C1.28115 16.6437 1.95942 16.9412 2.66667 16.9412H4V22.5882C4 22.9627 4.14048 23.3217 4.39052 23.5865C4.64057 23.8513 4.97971 24 5.33333 24H8C8.35362 24 8.69276 23.8513 8.94281 23.5865C9.19286 23.3217 9.33333 22.9627 9.33333 22.5882V16.9412H13.3333L20 22.5882V0L13.3333 5.64706ZM17.3333 16.3765L14.6667 14.1176H2.66667V8.47059H14.6667L17.3333 6.21176V16.3765ZM26 11.2941C26 13.7082 24.72 15.8965 22.6667 16.9412V5.64706C24.7067 6.70588 26 8.89412 26 11.2941Z" fill="#F6F8F5"/>
</svg>
