<svg width="20" height="13" viewBox="0 0 20 13" fill="none" xmlns="http://www.w3.org/2000/svg">
<path d="M19.92 0.61982C19.8186 0.375542 19.6245 0.181422 19.3802 0.0799767C19.26 0.0287506 19.1309 0.00157953 19.0003 0H14.0017C13.7366 0 13.4823 0.105326 13.2948 0.292809C13.1074 0.480291 13.002 0.734571 13.002 0.99971C13.002 1.26485 13.1074 1.51913 13.2948 1.70661C13.4823 1.89409 13.7366 1.99942 14.0017 1.99942H16.591L11.0026 7.5878L7.71356 4.28876C7.62063 4.19506 7.51006 4.12068 7.38823 4.06993C7.26641 4.01918 7.13574 3.99304 7.00377 3.99304C6.87179 3.99304 6.74113 4.01918 6.6193 4.06993C6.49748 4.12068 6.38691 4.19506 6.29397 4.28876L0.295713 10.287C0.202011 10.38 0.127639 10.4905 0.0768846 10.6123C0.0261307 10.7342 0 10.8648 0 10.9968C0 11.1288 0.0261307 11.2595 0.0768846 11.3813C0.127639 11.5031 0.202011 11.6137 0.295713 11.7066C0.388649 11.8003 0.499218 11.8747 0.621042 11.9254C0.742866 11.9762 0.873533 12.0023 1.00551 12.0023C1.13748 12.0023 1.26815 11.9762 1.38997 11.9254C1.5118 11.8747 1.62236 11.8003 1.7153 11.7066L7.00377 6.40814L10.2928 9.70719C10.3857 9.80089 10.4963 9.87526 10.6181 9.92601C10.74 9.97677 10.8706 10.0029 11.0026 10.0029C11.1346 10.0029 11.2652 9.97677 11.3871 9.92601C11.5089 9.87526 11.6195 9.80089 11.7124 9.70719L18.0006 3.40901V5.99826C18.0006 6.2634 18.1059 6.51768 18.2934 6.70516C18.4809 6.89264 18.7351 6.99797 19.0003 6.99797C19.2654 6.99797 19.5197 6.89264 19.7072 6.70516C19.8947 6.51768 20 6.2634 20 5.99826V0.99971C19.9984 0.869071 19.9712 0.740008 19.92 0.61982Z" fill="black"/>
</svg>
