<svg width="60" height="61" viewBox="0 0 60 61" fill="none" xmlns="http://www.w3.org/2000/svg">
<circle cx="30" cy="30.9195" r="30" fill="#BCBCBC"/>
<path d="M18.15 20.2695H21.9V24.0195H18.15V20.2695Z" fill="black"/>
<path d="M25.65 16.5195V27.7695H14.4V16.5195H25.65ZM23.775 18.3945H16.275V25.8945H23.775V18.3945ZM21.9 39.0195H18.15V42.7695H21.9V39.0195Z" fill="black"/>
<path d="M25.65 35.2695V46.5195H14.4V35.2695H25.65ZM16.275 37.1445V44.6445H23.775V37.1445H16.275ZM36.9 20.2695H40.65V24.0195H36.9V20.2695Z" fill="black"/>
<path d="M33.15 16.5195V27.7695H44.4V16.5195H33.15ZM42.525 18.3945V25.8945H35.025V18.3945H42.525ZM29.4 18.3945V16.5195H31.275V20.2695H29.4V24.0195H27.525V18.3945H29.4ZM29.4 27.7695V24.0195H31.275V27.7695H29.4ZM25.65 31.5195V29.6445H27.525V27.7695H29.4V31.5195H31.275V29.6445H40.65V31.5195H33.15V33.3945H27.525V31.5195H25.65ZM25.65 31.5195V33.3945H18.15V31.5195H16.275V33.3945H14.4V29.6445H20.025V31.5195H25.65ZM44.4 33.3945H42.525V29.6445H44.4V33.3945ZM42.525 33.3945H40.65V37.1445H44.4V35.2695H42.525V33.3945ZM35.025 33.3945H38.775V35.2695H36.9V37.1445H35.025V33.3945ZM38.775 39.0195V37.1445H36.9V39.0195H35.025V40.8945H31.275V42.7695H36.9V39.0195H38.775ZM38.775 39.0195H44.4V40.8945H40.65V42.7695H38.775V39.0195ZM31.275 37.1445V39.0195H33.15V35.2695H27.525V37.1445H31.275Z" fill="black"/>
<path d="M27.525 39.0195H29.4V44.6445H36.9V46.5195H27.525V39.0195ZM44.4 42.7695V46.5195H38.775V44.6445H42.525V42.7695H44.4Z" fill="black"/>
</svg>
